<svg width="172" height="29" viewBox="0 0 172 29" fill="none" xmlns="http://www.w3.org/2000/svg">
<rect width="172" height="29" rx="5" fill="#7E93FF"/>
<path d="M57.5625 18V9.27273H61.3466C62.0114 9.27273 62.5696 9.36222 63.0213 9.54119C63.4759 9.72017 63.8182 9.97301 64.0483 10.2997C64.2813 10.6264 64.3977 11.0114 64.3977 11.4545C64.3977 11.7756 64.3267 12.0682 64.1847 12.3324C64.0455 12.5966 63.8494 12.8182 63.5966 12.9972C63.3438 13.1733 63.0483 13.2955 62.7102 13.3636V13.4489C63.0852 13.4631 63.4261 13.5582 63.733 13.7344C64.0398 13.9077 64.2841 14.1477 64.4659 14.4545C64.6477 14.7585 64.7386 15.1165 64.7386 15.5284C64.7386 16.0057 64.6136 16.4304 64.3636 16.8026C64.1165 17.1747 63.7642 17.4673 63.3068 17.6804C62.8494 17.8935 62.304 18 61.6705 18H57.5625ZM59.9318 16.108H61.0398C61.4375 16.108 61.7358 16.0341 61.9347 15.8864C62.1335 15.7358 62.233 15.5142 62.233 15.2216C62.233 15.017 62.1861 14.8437 62.0923 14.7017C61.9986 14.5597 61.8651 14.4517 61.6918 14.3778C61.5213 14.304 61.3153 14.267 61.0739 14.267H59.9318V16.108ZM59.9318 12.8011H60.9034C61.1108 12.8011 61.294 12.7685 61.4531 12.7031C61.6122 12.6378 61.7358 12.544 61.8239 12.4219C61.9148 12.2969 61.9602 12.1449 61.9602 11.9659C61.9602 11.696 61.8636 11.4901 61.6705 11.348C61.4773 11.2031 61.233 11.1307 60.9375 11.1307H59.9318V12.8011ZM66.9247 13.2273H68.9361C69.8707 13.2273 70.6065 13.4432 71.1435 13.875C71.6804 14.304 71.9503 14.8949 71.9531 15.6477C71.9503 16.1335 71.8267 16.5526 71.5824 16.9048C71.3409 17.2571 70.9943 17.5284 70.5426 17.7188C70.0938 17.9062 69.5582 18 68.9361 18H65.6122V11.4545H67.8281V16.2443H68.9361C69.1776 16.2443 69.3764 16.1875 69.5327 16.0739C69.6889 15.9574 69.7685 15.8097 69.7713 15.6307C69.7685 15.4403 69.6889 15.2855 69.5327 15.1662C69.3764 15.044 69.1776 14.983 68.9361 14.983H66.9247V13.2273ZM72.4304 18V11.4545H74.7827V18H72.4304ZM81.8011 9.08523L82.3807 10.6534C82.2045 10.7784 82.017 10.8764 81.8182 10.9474C81.6193 11.0156 81.3707 11.0639 81.0724 11.0923C80.7741 11.1179 80.3864 11.1307 79.9091 11.1307C79.3693 11.1307 78.9347 11.1932 78.6051 11.3182C78.2756 11.4432 78.027 11.6548 77.8594 11.9531C77.6918 12.2514 77.5795 12.6591 77.5227 13.1761H77.5739C77.7528 12.7841 78.0085 12.4702 78.3409 12.2344C78.6761 11.9986 79.1307 11.8807 79.7045 11.8807C80.2926 11.8807 80.7997 12.0057 81.2259 12.2557C81.652 12.5028 81.9787 12.8509 82.206 13.2997C82.4361 13.7486 82.5511 14.2756 82.5511 14.8807C82.5511 15.5341 82.4162 16.1037 82.1463 16.5895C81.8764 17.0753 81.4886 17.4517 80.983 17.7188C80.4773 17.9858 79.8693 18.1193 79.1591 18.1193C78.4489 18.1193 77.8409 17.9801 77.3352 17.7017C76.8295 17.4233 76.4418 17.0142 76.1719 16.4744C75.902 15.9347 75.767 15.2727 75.767 14.4886V14.0625C75.767 12.4034 76.1122 11.1903 76.8026 10.4233C77.4957 9.65625 78.5028 9.27273 79.8239 9.27273C80.1307 9.27273 80.4091 9.27273 80.6591 9.27273C80.9119 9.27273 81.1335 9.25994 81.3239 9.23438C81.517 9.20881 81.6761 9.15909 81.8011 9.08523ZM79.1761 16.3807C79.375 16.3807 79.5469 16.3267 79.6918 16.2188C79.8366 16.108 79.9489 15.9489 80.0284 15.7415C80.108 15.5312 80.1477 15.2784 80.1477 14.983C80.1477 14.6818 80.108 14.4261 80.0284 14.2159C79.9489 14.0057 79.8366 13.8452 79.6918 13.7344C79.5469 13.6236 79.375 13.5682 79.1761 13.5682C79.0199 13.5682 78.8793 13.5994 78.7543 13.6619C78.6293 13.7244 78.5227 13.8168 78.4347 13.9389C78.3494 14.0582 78.2841 14.206 78.2386 14.3821C78.1932 14.5554 78.1705 14.7557 78.1705 14.983C78.1705 15.4261 78.2585 15.7699 78.4347 16.0142C78.6136 16.2585 78.8608 16.3807 79.1761 16.3807ZM83.5419 20.4545V11.4545H85.8771V12.5966H85.9283C86.0135 12.375 86.1385 12.1719 86.3033 11.9872C86.468 11.7997 86.6726 11.6506 86.9169 11.5398C87.1612 11.4261 87.4453 11.3693 87.7692 11.3693C88.201 11.3693 88.6115 11.4844 89.0007 11.7145C89.3928 11.9446 89.7109 12.3068 89.9553 12.8011C90.2024 13.2955 90.326 13.9375 90.326 14.7273C90.326 15.483 90.2081 16.1094 89.9723 16.6065C89.7393 17.1037 89.4268 17.4744 89.0348 17.7188C88.6456 17.9631 88.218 18.0852 87.7521 18.0852C87.4453 18.0852 87.1712 18.0355 86.9297 17.9361C86.6911 17.8338 86.4865 17.696 86.3161 17.5227C86.1484 17.3466 86.0192 17.1477 85.9283 16.9261H85.8942V20.4545H83.5419ZM85.843 14.7273C85.843 15.0455 85.8842 15.321 85.9666 15.554C86.0518 15.7841 86.1712 15.9631 86.3246 16.0909C86.4808 16.2159 86.6669 16.2784 86.8828 16.2784C87.0987 16.2784 87.282 16.2173 87.4325 16.0952C87.5859 15.9702 87.7024 15.7926 87.782 15.5625C87.8643 15.3295 87.9055 15.0511 87.9055 14.7273C87.9055 14.4034 87.8643 14.1264 87.782 13.8963C87.7024 13.6634 87.5859 13.4858 87.4325 13.3636C87.282 13.2386 87.0987 13.1761 86.8828 13.1761C86.6669 13.1761 86.4808 13.2386 86.3246 13.3636C86.1712 13.4858 86.0518 13.6634 85.9666 13.8963C85.8842 14.1264 85.843 14.4034 85.843 14.7273ZM93.1353 18.1023C92.7177 18.1023 92.3484 18.0341 92.0273 17.8977C91.7092 17.7585 91.4592 17.5483 91.2773 17.267C91.0955 16.9858 91.0046 16.6278 91.0046 16.1932C91.0046 15.8352 91.0657 15.5298 91.1879 15.277C91.31 15.0213 91.4805 14.8125 91.6992 14.6506C91.918 14.4886 92.1722 14.3651 92.462 14.2798C92.7546 14.1946 93.07 14.1392 93.408 14.1136C93.7745 14.0852 94.0685 14.0511 94.2901 14.0114C94.5146 13.9687 94.6765 13.9105 94.7759 13.8366C94.8754 13.7599 94.9251 13.6591 94.9251 13.5341V13.517C94.9251 13.3466 94.8597 13.2159 94.729 13.125C94.5984 13.0341 94.4308 12.9886 94.2262 12.9886C94.0018 12.9886 93.8185 13.0384 93.6765 13.1378C93.5373 13.2344 93.4535 13.3835 93.4251 13.5852H91.2603C91.2887 13.1875 91.4151 12.821 91.6396 12.4858C91.8668 12.1477 92.1978 11.8778 92.6325 11.6761C93.0671 11.4716 93.6097 11.3693 94.2603 11.3693C94.729 11.3693 95.1495 11.4247 95.5217 11.5355C95.8938 11.6435 96.2106 11.7955 96.4719 11.9915C96.7333 12.1847 96.9322 12.4119 97.0685 12.6733C97.2077 12.9318 97.2773 13.2131 97.2773 13.517V18H95.0785V17.0795H95.0273C94.8967 17.3239 94.7376 17.5213 94.5501 17.6719C94.3654 17.8224 94.1538 17.9318 93.9151 18C93.6793 18.0682 93.4194 18.1023 93.1353 18.1023ZM93.9023 16.6193C94.0813 16.6193 94.2489 16.5824 94.4052 16.5085C94.5643 16.4347 94.6935 16.3281 94.793 16.1889C94.8924 16.0497 94.9421 15.8807 94.9421 15.6818V15.1364C94.8796 15.1619 94.8129 15.1861 94.7418 15.2088C94.6737 15.2315 94.5998 15.2528 94.5202 15.2727C94.4435 15.2926 94.3612 15.3111 94.2731 15.3281C94.1879 15.3452 94.0984 15.3608 94.0046 15.375C93.8228 15.4034 93.6737 15.4503 93.5572 15.5156C93.4435 15.5781 93.3583 15.6562 93.3015 15.75C93.2475 15.8409 93.2205 15.9432 93.2205 16.0568C93.2205 16.2386 93.2844 16.3778 93.4123 16.4744C93.5401 16.571 93.7035 16.6193 93.9023 16.6193ZM97.9016 13.2102V11.4545H104.243V13.2102H102.163V18H99.9471V13.2102H97.9016ZM106.429 13.2273H108.44C109.375 13.2273 110.11 13.4432 110.647 13.875C111.184 14.304 111.454 14.8949 111.457 15.6477C111.454 16.1335 111.331 16.5526 111.086 16.9048C110.845 17.2571 110.498 17.5284 110.047 17.7188C109.598 17.9062 109.062 18 108.44 18H105.116V11.4545H107.332V16.2443H108.44C108.681 16.2443 108.88 16.1875 109.037 16.0739C109.193 15.9574 109.272 15.8097 109.275 15.6307C109.272 15.4403 109.193 15.2855 109.037 15.1662C108.88 15.044 108.681 14.983 108.44 14.983H106.429V13.2273Z" fill="white"/>
</svg>
